HIERARCHY
ROOT Root
{
  OFFSET 0.0 0.0 0.0
  CHANNELS 6 Xposition Yposition Zposition Zrotation Yrotation Xrotation
  JOINT Hips
  {
    OFFSET 0.0 100.0 0.0
    CHANNELS 6 Xposition Yposition Zposition Zrotation Yrotation Xrotation
    JOINT Spine1
    {
      OFFSET 5.003913 -0.037094 -0.013727
      CHANNELS 3 Zrotation Yrotation Xrotation
      JOINT Spine2
      {
        OFFSET 7.125363 -1e-06 0.0
        CHANNELS 3 Zrotation Yrotation Xrotation
        JOINT Chest
        {
          OFFSET 7.594027 1e-06 0.0
          CHANNELS 3 Zrotation Yrotation Xrotation
          JOINT Neck1
          {
            OFFSET 26.313086 -0.460272 -0.181672
            CHANNELS 3 Zrotation Yrotation Xrotation
            JOINT Neck2
            {
              OFFSET 8.045911 0.0 0.0
              CHANNELS 3 Zrotation Yrotation Xrotation
              JOINT Head
              {
                OFFSET 6.432774 0.0 0.0
                CHANNELS 3 Zrotation Yrotation Xrotation
                JOINT HeadEnd
                {
                  OFFSET 16.169773 0.06451 0.00362
                  CHANNELS 3 Zrotation Yrotation Xrotation
                }
                JOINT Jaw
                {
                  OFFSET 0.108741 3.12938 0.002639
                  CHANNELS 3 Zrotation Yrotation Xrotation
                }
                JOINT LeftEye
                {
                  OFFSET 4.45173 8.166359 3.206392
                  CHANNELS 3 Zrotation Yrotation Xrotation
                }
                JOINT RightEye
                {
                  OFFSET 4.436895 8.135758 -3.222429
                  CHANNELS 3 Zrotation Yrotation Xrotation
                }
              }
            }
          }
          JOINT LeftShoulder
          {
            OFFSET 23.218927 5.195579 1.621656
            CHANNELS 3 Zrotation Yrotation Xrotation
            JOINT LeftArm
            {
              OFFSET 15.902118 2e-06 -2e-06
              CHANNELS 3 Zrotation Yrotation Xrotation
              JOINT LeftForeArm
              {
                OFFSET 28.739307 0.0 -1e-06
                CHANNELS 3 Zrotation Yrotation Xrotation
                JOINT LeftHand
                {
                  OFFSET 27.093981 -4e-06 0.0
                  CHANNELS 3 Zrotation Yrotation Xrotation
                  JOINT LeftHandThumb1
                  {
                    OFFSET 2.276781 3.380274 0.83384
                    CHANNELS 3 Zrotation Yrotation Xrotation
                    JOINT LeftHandThumb2
                    {
                      OFFSET 4.705309 -1e-06 -1e-06
                      CHANNELS 3 Zrotation Yrotation Xrotation
                      JOINT LeftHandThumb3
                      {
                        OFFSET 2.798515 0.0 3e-06
                        CHANNELS 3 Zrotation Yrotation Xrotation
                        JOINT LeftHandThumbEnd
                        {
                          OFFSET 3.180793 4e-06 -4e-06
                          CHANNELS 3 Zrotation Yrotation Xrotation
                        }
                      }
                    }
                  }
                  JOINT LeftHandIndex1
                  {
                    OFFSET 3.247786 2.352677 0.137192
                    CHANNELS 3 Zrotation Yrotation Xrotation
                    JOINT LeftHandIndex2
                    {
                      OFFSET 6.367095 1e-06 0.0
                      CHANNELS 3 Zrotation Yrotation Xrotation
                      JOINT LeftHandIndex3
                      {
                        OFFSET 3.662364 0.0 0.0
                        CHANNELS 3 Zrotation Yrotation Xrotation
                        JOINT LeftHandIndex4
                        {
                          OFFSET 2.329242 4e-06 -4e-06
                          CHANNELS 3 Zrotation Yrotation Xrotation
                          JOINT LeftHandIndexEnd
                          {
                            OFFSET 2.767823 1e-06 0.0
                            CHANNELS 3 Zrotation Yrotation Xrotation
                          }
                        }
                      }
                    }
                  }
                  JOINT LeftHandMiddle1
                  {
                    OFFSET 3.163612 0.945023 -0.406112
                    CHANNELS 3 Zrotation Yrotation Xrotation
                    JOINT LeftHandMiddle2
                    {
                      OFFSET 6.276789 3e-06 0.0
                      CHANNELS 3 Zrotation Yrotation Xrotation
                      JOINT LeftHandMiddle3
                      {
                        OFFSET 4.35652 -1e-06 4e-06
                        CHANNELS 3 Zrotation Yrotation Xrotation
                        JOINT LeftHandMiddle4
                        {
                          OFFSET 2.996877 0.0 8e-06
                          CHANNELS 3 Zrotation Yrotation Xrotation
                          JOINT LeftHandMiddleEnd
                          {
                            OFFSET 2.323256 3e-06 -4e-06
                            CHANNELS 3 Zrotation Yrotation Xrotation
                          }
                        }
                      }
                    }
                  }
                  JOINT LeftHandRing1
                  {
                    OFFSET 2.882606 -0.309162 0.107445
                    CHANNELS 3 Zrotation Yrotation Xrotation
                    JOINT LeftHandRing2
                    {
                      OFFSET 6.033198 0.0 4e-06
                      CHANNELS 3 Zrotation Yrotation Xrotation
                      JOINT LeftHandRing3
                      {
                        OFFSET 4.350578 3e-06 0.0
                        CHANNELS 3 Zrotation Yrotation Xrotation
                        JOINT LeftHandRing4
                        {
                          OFFSET 2.651321 2e-06 -7e-06
                          CHANNELS 3 Zrotation Yrotation Xrotation
                          JOINT LeftHandRingEnd
                          {
                            OFFSET 1.937663 1e-06 -4e-06
                            CHANNELS 3 Zrotation Yrotation Xrotation
                          }
                        }
                      }
                    }
                  }
                  JOINT LeftHandPinky1
                  {
                    OFFSET 2.865315 -1.525436 0.575687
                    CHANNELS 3 Zrotation Yrotation Xrotation
                    JOINT LeftHandPinky2
                    {
                      OFFSET 5.54936 1e-06 -8e-06
                      CHANNELS 3 Zrotation Yrotation Xrotation
                      JOINT LeftHandPinky3
                      {
                        OFFSET 3.070974 0.0 -4e-06
                        CHANNELS 3 Zrotation Yrotation Xrotation
                        JOINT LeftHandPinky4
                        {
                          OFFSET 1.549672 1e-06 0.0
                          CHANNELS 3 Zrotation Yrotation Xrotation
                          JOINT LeftHandPinkyEnd
                          {
                            OFFSET 1.952123 0.0 0.0
                            CHANNELS 3 Zrotation Yrotation Xrotation
                          }
                        }
                      }
                    }
                  }
                }
              }
            }
          }
          JOINT RightShoulder
          {
            OFFSET 23.161716 5.296122 -1.380114
            CHANNELS 3 Zrotation Yrotation Xrotation
            JOINT RightArm
            {
              OFFSET -16.027195 -2e-06 1.1e-05
              CHANNELS 3 Zrotation Yrotation Xrotation
              JOINT RightForeArm
              {
                OFFSET -28.736639 4e-06 2e-06
                CHANNELS 3 Zrotation Yrotation Xrotation
                JOINT RightHand
                {
                  OFFSET -27.133619 6e-06 0.0
                  CHANNELS 3 Zrotation Yrotation Xrotation
                  JOINT RightHandThumb1
                  {
                    OFFSET -2.274328 -3.351035 -0.83067
                    CHANNELS 3 Zrotation Yrotation Xrotation
                    JOINT RightHandThumb2
                    {
                      OFFSET -4.703594 -3e-06 2e-06
                      CHANNELS 3 Zrotation Yrotation Xrotation
                      JOINT RightHandThumb3
                      {
                        OFFSET -2.794935 -4e-06 -3e-06
                        CHANNELS 3 Zrotation Yrotation Xrotation
                        JOINT RightHandThumbEnd
                        {
                          OFFSET -3.183852 4e-06 1e-06
                          CHANNELS 3 Zrotation Yrotation Xrotation
                        }
                      }
                    }
                  }
                  JOINT RightHandIndex1
                  {
                    OFFSET -3.253496 -2.33755 -0.127667
                    CHANNELS 3 Zrotation Yrotation Xrotation
                    JOINT RightHandIndex2
                    {
                      OFFSET -6.344434 0.0 0.0
                      CHANNELS 3 Zrotation Yrotation Xrotation
                      JOINT RightHandIndex3
                      {
                        OFFSET -3.654871 0.0 -8e-06
                        CHANNELS 3 Zrotation Yrotation Xrotation
                        JOINT RightHandIndex4
                        {
                          OFFSET -2.327586 -1e-06 0.0
                          CHANNELS 3 Zrotation Yrotation Xrotation
                          JOINT RightHandIndexEnd
                          {
                            OFFSET -2.770001 3e-06 8e-06
                            CHANNELS 3 Zrotation Yrotation Xrotation
                          }
                        }
                      }
                    }
                  }
                  JOINT RightHandMiddle1
                  {
                    OFFSET -3.168223 -0.944764 0.411762
                    CHANNELS 3 Zrotation Yrotation Xrotation
                    JOINT RightHandMiddle2
                    {
                      OFFSET -6.266691 -1e-06 -4e-06
                      CHANNELS 3 Zrotation Yrotation Xrotation
                      JOINT RightHandMiddle3
                      {
                        OFFSET -4.348901 0.0 0.0
                        CHANNELS 3 Zrotation Yrotation Xrotation
                        JOINT RightHandMiddle4
                        {
                          OFFSET -3.00024 2e-06 -4e-06
                          CHANNELS 3 Zrotation Yrotation Xrotation
                          JOINT RightHandMiddleEnd
                          {
                            OFFSET -2.321477 -4e-06 -4e-06
                            CHANNELS 3 Zrotation Yrotation Xrotation
                          }
                        }
                      }
                    }
                  }
                  JOINT RightHandRing1
                  {
                    OFFSET -2.885654 0.293261 -0.119232
                    CHANNELS 3 Zrotation Yrotation Xrotation
                    JOINT RightHandRing2
                    {
                      OFFSET -6.032835 -1e-06 -4e-06
                      CHANNELS 3 Zrotation Yrotation Xrotation
                      JOINT RightHandRing3
                      {
                        OFFSET -4.33881 0.0 -4e-06
                        CHANNELS 3 Zrotation Yrotation Xrotation
                        JOINT RightHandRing4
                        {
                          OFFSET -2.654903 -4e-06 -4e-06
                          CHANNELS 3 Zrotation Yrotation Xrotation
                          JOINT RightHandRingEnd
                          {
                            OFFSET -1.935122 0.0 4e-06
                            CHANNELS 3 Zrotation Yrotation Xrotation
                          }
                        }
                      }
                    }
                  }
                  JOINT RightHandPinky1
                  {
                    OFFSET -2.866241 1.503904 -0.60527
                    CHANNELS 3 Zrotation Yrotation Xrotation
                    JOINT RightHandPinky2
                    {
                      OFFSET -5.553177 -2e-06 0.0
                      CHANNELS 3 Zrotation Yrotation Xrotation
                      JOINT RightHandPinky3
                      {
                        OFFSET -3.062664 -1e-06 -4e-06
                        CHANNELS 3 Zrotation Yrotation Xrotation
                        JOINT RightHandPinky4
                        {
                          OFFSET -1.546529 2e-06 4e-06
                          CHANNELS 3 Zrotation Yrotation Xrotation
                          JOINT RightHandPinkyEnd
                          {
                            OFFSET -1.952341 0.0 -4e-06
                            CHANNELS 3 Zrotation Yrotation Xrotation
                          }
                        }
                      }
                    }
                  }
                }
              }
            }
          }
        }
      }
    }
    JOINT LeftLeg
    {
      OFFSET -8.443107 2.567604 10.043214
      CHANNELS 3 Zrotation Yrotation Xrotation
      JOINT LeftShin
      {
        OFFSET 43.229198 1e-06 -1e-06
        CHANNELS 3 Zrotation Yrotation Xrotation
        JOINT LeftFoot
        {
          OFFSET 42.298611 1e-06 1e-06
          CHANNELS 3 Zrotation Yrotation Xrotation
          JOINT LeftToeBase
          {
            OFFSET 14.165858 1e-06 0.0
            CHANNELS 3 Zrotation Yrotation Xrotation
            JOINT LeftToeEnd
            {
              OFFSET 6.7141 -0.234461 0.0
              CHANNELS 3 Zrotation Yrotation Xrotation
            }
          }
        }
      }
    }
    JOINT RightLeg
    {
      OFFSET -8.303923 2.592729 -10.047278
      CHANNELS 3 Zrotation Yrotation Xrotation
      JOINT RightShin
      {
        OFFSET -43.369682 0.0 1e-06
        CHANNELS 3 Zrotation Yrotation Xrotation
        JOINT RightFoot
        {
          OFFSET -42.260784 4e-06 2e-06
          CHANNELS 3 Zrotation Yrotation Xrotation
          JOINT RightToeBase
          {
            OFFSET -14.222245 -2e-06 -1e-06
            CHANNELS 3 Zrotation Yrotation Xrotation
            JOINT RightToeEnd
            {
              OFFSET -6.660062 0.232574 -2e-06
              CHANNELS 3 Zrotation Yrotation Xrotation
            }
          }
        }
      }
    }
  }
}
MOTION
Frames: 4
Frame Time: 0.03333333333333333
0.0 0.0 0.0 0.0 -0.0 0.0 -0.046753 95.233498 -7.250214 83.471893 -0.368037 90.024773 2.204076 4.644062 0.431935 -9.969158 0.435502 1.668947 15.632188 2.061506 -0.368677 13.318921 -2.240064 2.554981 -2.419748 -0.709453 -0.317882 -36.768665 -1.862557 0.22538 5e-06 -0.0 -0.0 0.055032 0.020521 -0.044218 0.044509 -0.038096 -0.054237 0.045442 0.066474 -0.027937 -120.160217 -68.520737 137.910507 27.276928 -58.458641 16.115173 27.599852 -0.067569 0.222723 -6.120698 -0.786377 5.446103 17.636814 -26.322927 52.41153 -19.466909 -14.395729 29.410679 7e-06 -8.774953 -1e-05 16.501417 -17.738665 5.953135 -0.609782 -1.795672 -3.889355 -4.807154 -11.046954 -2.937882 -3e-06 -20.976372 -1.2e-05 -5.020059 -25.034107 -4.031979 6e-06 2e-06 -0.0 -10.634635 -5.687032 -3.565606 10.573393 -17.923172 -3.113943 1e-06 -13.821433 -1.5e-05 -0.501761 -31.182205 -4.027143 -11.369965 -59.891697 7.548936 -13.982849 -7.150277 -2.875056 13.772888 -8.401591 -3.218276 0.347745 -34.212189 0.771626 -0.963035 -17.733757 2.621054 0.0 -2e-06 -0.0 -17.346609 -20.095432 -4.201789 21.757816 -1.638382 3.866478 0.0 -6.338924 -8e-06 -1.697607 -22.592239 -6.194168 -2e-06 -5e-06 -1e-06 41.714851 -82.215752 153.747696 51.414669 -44.392273 -7.391662 49.864304 -0.334261 0.465263 1.323409 0.906725 3.466326 22.18222 -20.375999 49.933754 -16.702082 -16.743715 28.476927 3e-06 -12.690782 2e-05 15.585918 -17.927427 2.630182 -0.105918 -1.513876 -4.275921 -5.039097 -5.612951 -2.953594 -3e-06 -11.020705 -2.5e-05 -6.111389 -15.89568 -3.840575 0.0 0.0 1e-06 -10.283457 -5.680359 -4.34187 11.028418 -11.302535 -2.372699 -1.384275 -14.238828 -6.320254 -0.62539 -26.924784 -3.827782 -4.843467 -49.480663 -3.60498 -13.708643 -7.363564 -3.720961 18.141357 -14.052898 -3.242769 1e-05 -18.78758 -4.9e-05 -0.429718 -8.456211 2.555529 1e-06 -0.0 2e-06 -15.923686 -20.094709 -5.473627 30.419559 -7.190882 1.735902 2e-06 -8.163047 -2.2e-05 -1.861893 -22.861958 -6.16815 -1e-06 -1e-06 -1e-06 151.48114 -10.586423 -11.431699 1.285577 0.249828 0.074381 -66.614166 2.94785 -12.190257 -11.618272 1.867284 1.942298 -1.0 -1e-06 0.0 18.567093 7.45586 -0.761532 8.665815 -0.116886 -0.073681 -85.054115 7.875659 1.812808 -12.212749 0.670488 1.545239 -1.000007 0.0 0.0 
0.0 0.0 0.0 0.0 -0.0 0.0 0.924661 94.658783 -3.025599 84.388512 -0.771884 89.604591 1.873109 3.886691 0.509301 -10.015859 0.426043 1.927867 15.683715 1.719958 -0.353984 12.809503 -2.451298 2.641863 -2.472135 -0.634172 -0.217127 -36.480976 -1.483864 -0.063167 6e-06 0.0 0.0 0.050776 0.003789 -0.070638 0.069555 -0.037667 -0.070314 0.08318 0.032716 -0.066704 -121.264488 -67.894638 138.898804 25.799597 -57.395325 17.41453 28.677189 -0.201078 0.159928 -6.459548 -0.849381 5.536395 17.636766 -26.322817 52.411392 -19.46678 -14.395732 29.410559 3.6e-05 -8.77495 -9e-06 16.500805 -17.897163 6.031803 -0.609785 -1.795667 -3.88934 -4.807186 -11.046921 -2.937859 -6.9e-05 -20.976252 -1e-06 -5.020144 -25.033955 -4.031996 4e-06 -1e-06 -0.0 -10.634645 -5.687039 -3.565587 10.573339 -17.923069 -3.11392 -4.1e-05 -13.821362 -1.3e-05 -0.501863 -31.182016 -4.027157 -11.501545 -60.262459 7.712727 -13.982863 -7.150286 -2.87503 13.772868 -8.40152 -3.218264 0.347628 -34.211987 0.771646 -0.963072 -17.733639 2.621014 -1e-06 -1e-06 0.0 -17.346661 -20.095409 -4.201751 21.75783 -1.638322 3.866479 -2e-05 -6.338892 -4e-06 -1.697707 -22.592093 -6.194137 -0.0 -5e-06 -3e-06 39.445415 -81.520988 156.168716 50.646503 -44.017498 -5.274261 49.970432 0.278715 0.492815 1.916126 1.114803 2.36477 22.182283 -20.375938 49.933784 -16.702024 -16.743656 28.476877 3.2e-05 -12.690777 -4e-06 15.984123 -17.884033 2.516716 -0.105925 -1.513879 -4.275918 -5.039115 -5.61296 -2.953599 -2.4e-05 -11.020695 -2.8e-05 -6.111427 -15.895686 -3.840588 -0.0 -1e-06 1e-06 -10.283472 -5.680378 -4.341876 11.028389 -11.302518 -2.372674 -1.384315 -14.238824 -6.32026 -0.625437 -26.924759 -3.827799 -4.710106 -49.561226 -3.581332 -13.708661 -7.363594 -3.720973 18.141323 -14.05287 -3.242732 -2.1e-05 -18.787561 -6.1e-05 -0.429723 -8.456199 2.555524 1e-06 0.0 1e-06 -15.923727 -20.094755 -5.473646 30.419538 -7.190838 1.735968 -8e-06 -8.163038 -2.4e-05 -1.861912 -22.861933 -6.168179 3e-06 -4e-06 -2e-06 150.80043 -9.152632 -9.962792 5.827894 0.197016 0.114877 -66.86132 3.065274 -9.752243 -12.310903 1.892058 1.963679 -1.000003 -0.0 -1e-06 18.999176 5.462604 -2.052345 12.694563 -0.092296 0.072123 -84.663635 8.988074 1.628326 -15.583744 0.751353 1.508425 -1.000005 1e-06 1e-06 
0.0 0.0 0.0 0.0 -0.0 0.0 2.103287 94.766876 1.574791 87.343292 -1.766524 89.692719 1.020749 1.722371 0.436199 -10.35908 0.225995 2.181049 15.932873 0.583809 -0.537878 12.091696 -1.948543 2.567534 -2.540771 -0.665346 -0.060751 -36.048477 -1.001269 -0.658239 4e-06 -0.0 -0.0 0.02378 0.018395 -0.066948 0.086557 -0.031496 -0.062157 0.106382 0.056884 -0.066281 -124.967735 -67.271156 142.561676 24.724285 -55.254272 18.281847 28.481607 -0.114639 0.123167 -6.110649 -0.749222 5.038019 17.637007 -26.323215 52.411827 -19.467112 -14.395876 29.410894 3e-06 -8.775056 -1.2e-05 16.60837 -18.175262 6.094271 -0.609784 -1.795688 -3.889376 -4.807198 -11.047071 -2.937887 -4e-06 -20.976646 1.6e-05 -5.020162 -25.034475 -4.031977 3e-06 1e-06 0.0 -10.634724 -5.687075 -3.565615 10.573519 -17.92338 -3.113965 2e-06 -13.821612 3e-06 -0.501805 -31.182707 -4.027144 -11.896581 -60.394234 7.927554 -13.982964 -7.150327 -2.875054 13.773031 -8.401685 -3.218303 0.347736 -34.212662 0.771681 -0.963054 -17.733999 2.6211 -2e-06 -1e-06 0.0 -17.346762 -20.095598 -4.201784 21.758038 -1.638412 3.866507 1e-06 -6.339003 -3e-06 -1.697645 -22.592564 -6.194205 -0.0 -4e-06 -1e-06 34.829739 -79.625168 161.062454 48.846424 -44.198044 -3.715106 48.636726 0.330179 0.497401 2.811899 1.807516 2.121406 22.182352 -20.37606 49.934071 -16.702255 -16.743872 28.477167 1.4e-05 -12.690931 2e-05 15.964252 -17.855003 2.623172 -0.105917 -1.513892 -4.27595 -5.039151 -5.613004 -2.953614 -1.2e-05 -11.020797 -3.9e-05 -6.111486 -15.895855 -3.840624 1e-06 -0.0 -1e-06 -10.283543 -5.680418 -4.341888 11.028513 -11.302608 -2.372733 -1.384306 -14.238955 -6.320322 -0.625399 -26.925043 -3.827868 -4.679161 -49.789108 -3.538147 -13.708755 -7.363637 -3.720973 18.141523 -14.052985 -3.242815 -1e-06 -18.787727 -8.1e-05 -0.429722 -8.456278 2.555537 0.0 0.0 0.0 -15.923841 -20.094887 -5.473655 30.419859 -7.190906 1.735914 -5e-06 -8.163106 -3e-05 -1.861923 -22.862156 -6.168252 -2e-06 -2e-06 2e-06 150.093002 -5.205775 -8.577951 10.30769 0.126772 0.139654 -60.228806 2.130585 -3.736977 -12.040903 1.822772 2.055007 -1.000001 1e-06 0.0 17.182325 1.224927 -4.685303 19.751177 -0.214371 0.330837 -82.200478 10.023241 1.719406 -22.515745 0.935905 1.443097 -1.000006 -0.0 0.0 
0.0 0.0 0.0 0.0 -0.0 0.0 3.167298 95.245438 6.549202 89.924568 -2.223508 90.448982 0.696386 0.122542 0.290513 -10.556427 -0.108916 2.364048 15.79219 -0.856503 -0.660329 11.795843 -1.050088 2.414832 -2.486493 -0.75363 -0.424852 -36.336536 -0.589708 -1.084528 6e-06 -0.0 -0.0 0.002041 0.045139 -0.009174 0.131557 0.019331 0.008801 0.146227 0.060133 -0.022361 -125.653969 -68.124458 143.329239 26.06539 -54.680477 17.71516 26.867519 -0.07021 0.120326 -5.815506 -0.6329 3.703332 17.636829 -26.322966 52.411438 -19.466816 -14.39572 29.410576 4e-06 -8.774937 -1.5e-05 16.842127 -18.278656 5.927355 -0.609781 -1.795664 -3.889343 -4.807141 -11.046918 -2.93786 -6e-06 -20.976303 3.5e-05 -5.020081 -25.033998 -4.031905 4e-06 1e-06 1e-06 -10.634618 -5.687009 -3.565599 10.573377 -17.923132 -3.113904 -4e-06 -13.821397 1.9e-05 -0.501828 -31.182093 -4.027031 -11.933062 -60.25787 7.712103 -13.982825 -7.150247 -2.875044 13.772866 -8.401571 -3.218253 0.347709 -34.212082 0.771716 -0.96306 -17.733707 2.621089 -1e-06 1e-06 -0.0 -17.346571 -20.095364 -4.201774 21.757774 -1.638393 3.866476 1e-06 -6.338907 6e-06 -1.697633 -22.59215 -6.194076 -1e-06 -4e-06 -1e-06 37.451893 -78.789833 158.636871 48.203793 -47.12949 -4.313423 45.342953 0.154156 0.52941 3.05714 2.777142 2.211052 22.182217 -20.375999 49.933567 -16.701977 -16.743643 28.476765 -1.8e-05 -12.690707 7e-06 15.948829 -17.739645 2.654998 -0.105919 -1.513868 -4.275903 -5.039072 -5.612913 -2.95358 1.7e-05 -11.020632 -1.5e-05 -6.111329 -15.895542 -3.840532 -0.0 -0.0 -2e-06 -10.283422 -5.680317 -4.341857 11.028377 -11.302496 -2.372662 -1.384255 -14.238726 -6.320194 -0.625387 -26.924587 -3.827667 -4.491506 -50.002258 -3.606035 -13.708592 -7.363514 -3.720953 18.141291 -14.052855 -3.242717 3.1e-05 -18.787464 -1.1e-05 -0.429708 -8.45616 2.555541 2e-06 1e-06 -2e-06 -15.923616 -20.094599 -5.47361 30.419416 -7.190892 1.735915 1.1e-05 -8.163003 -3e-06 -1.861872 -22.861776 -6.168029 -3e-06 -1e-06 -0.0 149.866135 -1.633891 -7.573312 15.51004 0.007623 0.225135 -58.57571 0.87054 -1.573624 -10.400046 1.727261 2.059578 -1.000001 0.0 -0.0 13.997904 -2.445532 -6.886062 29.610489 -0.463449 0.460621 -74.537811 9.626366 3.288718 -33.357468 1.219523 1.363589 -1.000004 -0.0 0.0 
